<svg xmlns="http://www.w3.org/2000/svg" viewBox="0 0 96 96" role="img" aria-label="SavorAI">
  <defs>
    <linearGradient id="g" x1="0" y1="0" x2="1" y2="1">
      <stop offset="0" stop-color="#FFB000"/>
      <stop offset="1" stop-color="#16A34A"/>
    </linearGradient>
  </defs>
  <!-- tło z miękkim zaokrągleniem -->
  <rect x="4" y="4" width="88" height="88" rx="20" fill="#0F172A"/>
  <!-- miska -->
  <path d="M20 58c0 10 13 18 28 18s28-8 28-18H20z" fill="#FFFFFF" opacity="0.9"/>
  <!-- łyżka w kształcie S -->
  <path d="M55 26c-6 0-11 3-11 8 0 6 8 7 14 9 4 1 7 2 7 6 0 5-5 7-10 7-6 0-10-2-13-4"
        fill="none" stroke="url(#g)" stroke-width="6" stroke-linecap="round"/>
  <!-- iskra AI -->
  <g transform="translate(66 22)" fill="#FFB000">
    <circle r="2.5"/>
    <path d="M0-6v4M0 6v-4M6 0h-4M-6 0h4" stroke="#FFB000" stroke-width="1.5" stroke-linecap="round"/>
  </g>
</svg>